<mxfile host="app.diagrams.net" modified="2023-06-30T06:37:17.726Z" agent="Mozilla/5.0 (Windows NT 10.0; WOW64) AppleWebKit/537.36 (KHTML, like Gecko) Chrome/80.0.3987.87 Safari/537.36 SE 2.X MetaSr 1.0" etag="OfPFq1gfNfc3vcGUl7NX" version="21.5.0" type="github">
  <diagram name="第 1 页" id="MMGk2AGGlcsp3SwOctC2">
    <mxGraphModel dx="1434" dy="749" grid="1" gridSize="10" guides="1" tooltips="1" connect="1" arrows="1" fold="1" page="1" pageScale="1" pageWidth="827" pageHeight="1169" math="0" shadow="0">
      <root>
        <mxCell id="0" />
        <mxCell id="1" parent="0" />
        <mxCell id="o3z__NgjPDAwA21Tv4Px-1" value="&lt;br&gt;&lt;br&gt;&lt;br&gt;&lt;br&gt;&lt;br&gt;&lt;br&gt;&lt;br&gt;&lt;br&gt;&lt;br&gt;&lt;br&gt;threadPool" style="rounded=0;whiteSpace=wrap;html=1;" vertex="1" parent="1">
          <mxGeometry x="110" y="500" width="720" height="140" as="geometry" />
        </mxCell>
        <mxCell id="o3z__NgjPDAwA21Tv4Px-4" style="edgeStyle=orthogonalEdgeStyle;rounded=0;orthogonalLoop=1;jettySize=auto;html=1;entryX=0.092;entryY=0;entryDx=0;entryDy=0;entryPerimeter=0;" edge="1" parent="1" source="o3z__NgjPDAwA21Tv4Px-2" target="o3z__NgjPDAwA21Tv4Px-3">
          <mxGeometry relative="1" as="geometry">
            <mxPoint x="-30" y="620" as="sourcePoint" />
            <mxPoint x="235" y="810" as="targetPoint" />
          </mxGeometry>
        </mxCell>
        <mxCell id="o3z__NgjPDAwA21Tv4Px-11" value="查询" style="edgeLabel;html=1;align=center;verticalAlign=middle;resizable=0;points=[];" vertex="1" connectable="0" parent="o3z__NgjPDAwA21Tv4Px-4">
          <mxGeometry x="-0.3586" y="1" relative="1" as="geometry">
            <mxPoint as="offset" />
          </mxGeometry>
        </mxCell>
        <mxCell id="o3z__NgjPDAwA21Tv4Px-13" value="" style="edgeStyle=orthogonalEdgeStyle;rounded=0;orthogonalLoop=1;jettySize=auto;html=1;" edge="1" parent="1" source="o3z__NgjPDAwA21Tv4Px-2" target="o3z__NgjPDAwA21Tv4Px-12">
          <mxGeometry relative="1" as="geometry" />
        </mxCell>
        <mxCell id="o3z__NgjPDAwA21Tv4Px-21" value="放入" style="edgeLabel;html=1;align=center;verticalAlign=middle;resizable=0;points=[];" vertex="1" connectable="0" parent="o3z__NgjPDAwA21Tv4Px-13">
          <mxGeometry x="0.2333" y="-2" relative="1" as="geometry">
            <mxPoint as="offset" />
          </mxGeometry>
        </mxCell>
        <mxCell id="o3z__NgjPDAwA21Tv4Px-2" value="thread" style="rounded=0;whiteSpace=wrap;html=1;" vertex="1" parent="1">
          <mxGeometry x="150" y="550" width="120" height="60" as="geometry" />
        </mxCell>
        <mxCell id="o3z__NgjPDAwA21Tv4Px-3" value="es" style="rounded=0;whiteSpace=wrap;html=1;" vertex="1" parent="1">
          <mxGeometry x="150" y="800" width="650" height="80" as="geometry" />
        </mxCell>
        <mxCell id="o3z__NgjPDAwA21Tv4Px-5" style="edgeStyle=orthogonalEdgeStyle;rounded=0;orthogonalLoop=1;jettySize=auto;html=1;entryX=0.092;entryY=0;entryDx=0;entryDy=0;entryPerimeter=0;" edge="1" parent="1" source="o3z__NgjPDAwA21Tv4Px-6">
          <mxGeometry relative="1" as="geometry">
            <mxPoint x="120" y="620" as="sourcePoint" />
            <mxPoint x="360" y="800" as="targetPoint" />
          </mxGeometry>
        </mxCell>
        <mxCell id="o3z__NgjPDAwA21Tv4Px-6" value="thread" style="rounded=0;whiteSpace=wrap;html=1;" vertex="1" parent="1">
          <mxGeometry x="300" y="550" width="120" height="60" as="geometry" />
        </mxCell>
        <mxCell id="o3z__NgjPDAwA21Tv4Px-7" style="edgeStyle=orthogonalEdgeStyle;rounded=0;orthogonalLoop=1;jettySize=auto;html=1;entryX=0.092;entryY=0;entryDx=0;entryDy=0;entryPerimeter=0;" edge="1" parent="1" source="o3z__NgjPDAwA21Tv4Px-8">
          <mxGeometry relative="1" as="geometry">
            <mxPoint x="360" y="620" as="sourcePoint" />
            <mxPoint x="600" y="800" as="targetPoint" />
          </mxGeometry>
        </mxCell>
        <mxCell id="o3z__NgjPDAwA21Tv4Px-8" value="thread" style="rounded=0;whiteSpace=wrap;html=1;" vertex="1" parent="1">
          <mxGeometry x="540" y="550" width="120" height="60" as="geometry" />
        </mxCell>
        <mxCell id="o3z__NgjPDAwA21Tv4Px-9" style="edgeStyle=orthogonalEdgeStyle;rounded=0;orthogonalLoop=1;jettySize=auto;html=1;entryX=0.092;entryY=0;entryDx=0;entryDy=0;entryPerimeter=0;" edge="1" parent="1" source="o3z__NgjPDAwA21Tv4Px-10">
          <mxGeometry relative="1" as="geometry">
            <mxPoint x="520" y="620" as="sourcePoint" />
            <mxPoint x="760" y="800" as="targetPoint" />
          </mxGeometry>
        </mxCell>
        <mxCell id="o3z__NgjPDAwA21Tv4Px-10" value="thread" style="rounded=0;whiteSpace=wrap;html=1;" vertex="1" parent="1">
          <mxGeometry x="700" y="550" width="120" height="60" as="geometry" />
        </mxCell>
        <mxCell id="o3z__NgjPDAwA21Tv4Px-12" value="queue" style="whiteSpace=wrap;html=1;rounded=0;" vertex="1" parent="1">
          <mxGeometry x="150" y="360" width="120" height="60" as="geometry" />
        </mxCell>
        <mxCell id="o3z__NgjPDAwA21Tv4Px-14" value="" style="edgeStyle=orthogonalEdgeStyle;rounded=0;orthogonalLoop=1;jettySize=auto;html=1;" edge="1" parent="1" target="o3z__NgjPDAwA21Tv4Px-15" source="o3z__NgjPDAwA21Tv4Px-6">
          <mxGeometry relative="1" as="geometry">
            <mxPoint x="360" y="540" as="sourcePoint" />
          </mxGeometry>
        </mxCell>
        <mxCell id="o3z__NgjPDAwA21Tv4Px-15" value="queue" style="whiteSpace=wrap;html=1;rounded=0;" vertex="1" parent="1">
          <mxGeometry x="300" y="360" width="120" height="60" as="geometry" />
        </mxCell>
        <mxCell id="o3z__NgjPDAwA21Tv4Px-16" value="" style="edgeStyle=orthogonalEdgeStyle;rounded=0;orthogonalLoop=1;jettySize=auto;html=1;" edge="1" parent="1" target="o3z__NgjPDAwA21Tv4Px-17">
          <mxGeometry relative="1" as="geometry">
            <mxPoint x="600" y="560" as="sourcePoint" />
          </mxGeometry>
        </mxCell>
        <mxCell id="o3z__NgjPDAwA21Tv4Px-17" value="queue" style="whiteSpace=wrap;html=1;rounded=0;" vertex="1" parent="1">
          <mxGeometry x="540" y="360" width="120" height="60" as="geometry" />
        </mxCell>
        <mxCell id="o3z__NgjPDAwA21Tv4Px-18" value="" style="edgeStyle=orthogonalEdgeStyle;rounded=0;orthogonalLoop=1;jettySize=auto;html=1;" edge="1" parent="1" target="o3z__NgjPDAwA21Tv4Px-19">
          <mxGeometry relative="1" as="geometry">
            <mxPoint x="760" y="550" as="sourcePoint" />
          </mxGeometry>
        </mxCell>
        <mxCell id="o3z__NgjPDAwA21Tv4Px-19" value="queue" style="whiteSpace=wrap;html=1;rounded=0;" vertex="1" parent="1">
          <mxGeometry x="700" y="360" width="120" height="60" as="geometry" />
        </mxCell>
        <mxCell id="o3z__NgjPDAwA21Tv4Px-20" value="web" style="rounded=0;whiteSpace=wrap;html=1;" vertex="1" parent="1">
          <mxGeometry x="145" y="190" width="685" height="80" as="geometry" />
        </mxCell>
        <mxCell id="o3z__NgjPDAwA21Tv4Px-22" value="" style="endArrow=classic;html=1;rounded=0;exitX=0.099;exitY=1;exitDx=0;exitDy=0;exitPerimeter=0;" edge="1" parent="1" source="o3z__NgjPDAwA21Tv4Px-20" target="o3z__NgjPDAwA21Tv4Px-12">
          <mxGeometry width="50" height="50" relative="1" as="geometry">
            <mxPoint x="390" y="510" as="sourcePoint" />
            <mxPoint x="440" y="460" as="targetPoint" />
          </mxGeometry>
        </mxCell>
        <mxCell id="o3z__NgjPDAwA21Tv4Px-23" value="查询" style="edgeLabel;html=1;align=center;verticalAlign=middle;resizable=0;points=[];" vertex="1" connectable="0" parent="o3z__NgjPDAwA21Tv4Px-22">
          <mxGeometry x="-0.4893" y="1" relative="1" as="geometry">
            <mxPoint as="offset" />
          </mxGeometry>
        </mxCell>
        <mxCell id="o3z__NgjPDAwA21Tv4Px-24" value="" style="endArrow=classic;html=1;rounded=0;exitX=0.099;exitY=1;exitDx=0;exitDy=0;exitPerimeter=0;" edge="1" parent="1">
          <mxGeometry width="50" height="50" relative="1" as="geometry">
            <mxPoint x="372" y="270" as="sourcePoint" />
            <mxPoint x="370" y="360" as="targetPoint" />
          </mxGeometry>
        </mxCell>
        <mxCell id="o3z__NgjPDAwA21Tv4Px-25" value="查询" style="edgeLabel;html=1;align=center;verticalAlign=middle;resizable=0;points=[];" vertex="1" connectable="0" parent="o3z__NgjPDAwA21Tv4Px-24">
          <mxGeometry x="-0.4893" y="1" relative="1" as="geometry">
            <mxPoint as="offset" />
          </mxGeometry>
        </mxCell>
        <mxCell id="o3z__NgjPDAwA21Tv4Px-26" value="" style="endArrow=classic;html=1;rounded=0;exitX=0.099;exitY=1;exitDx=0;exitDy=0;exitPerimeter=0;" edge="1" parent="1">
          <mxGeometry width="50" height="50" relative="1" as="geometry">
            <mxPoint x="582" y="270" as="sourcePoint" />
            <mxPoint x="580" y="360" as="targetPoint" />
          </mxGeometry>
        </mxCell>
        <mxCell id="o3z__NgjPDAwA21Tv4Px-27" value="查询" style="edgeLabel;html=1;align=center;verticalAlign=middle;resizable=0;points=[];" vertex="1" connectable="0" parent="o3z__NgjPDAwA21Tv4Px-26">
          <mxGeometry x="-0.4893" y="1" relative="1" as="geometry">
            <mxPoint as="offset" />
          </mxGeometry>
        </mxCell>
        <mxCell id="o3z__NgjPDAwA21Tv4Px-28" value="" style="endArrow=classic;html=1;rounded=0;exitX=0.099;exitY=1;exitDx=0;exitDy=0;exitPerimeter=0;" edge="1" parent="1">
          <mxGeometry width="50" height="50" relative="1" as="geometry">
            <mxPoint x="772" y="270" as="sourcePoint" />
            <mxPoint x="770" y="360" as="targetPoint" />
          </mxGeometry>
        </mxCell>
        <mxCell id="o3z__NgjPDAwA21Tv4Px-29" value="查询" style="edgeLabel;html=1;align=center;verticalAlign=middle;resizable=0;points=[];" vertex="1" connectable="0" parent="o3z__NgjPDAwA21Tv4Px-28">
          <mxGeometry x="-0.4893" y="1" relative="1" as="geometry">
            <mxPoint as="offset" />
          </mxGeometry>
        </mxCell>
        <mxCell id="o3z__NgjPDAwA21Tv4Px-32" value="" style="endArrow=classic;html=1;rounded=0;exitX=0.492;exitY=0.98;exitDx=0;exitDy=0;exitPerimeter=0;" edge="1" parent="1" source="o3z__NgjPDAwA21Tv4Px-20">
          <mxGeometry width="50" height="50" relative="1" as="geometry">
            <mxPoint x="470" y="390" as="sourcePoint" />
            <mxPoint x="482" y="490" as="targetPoint" />
          </mxGeometry>
        </mxCell>
        <mxCell id="o3z__NgjPDAwA21Tv4Px-33" value="启动一个&lt;br&gt;新线" style="edgeLabel;html=1;align=center;verticalAlign=middle;resizable=0;points=[];" vertex="1" connectable="0" parent="o3z__NgjPDAwA21Tv4Px-32">
          <mxGeometry x="0.2162" y="-1" relative="1" as="geometry">
            <mxPoint as="offset" />
          </mxGeometry>
        </mxCell>
      </root>
    </mxGraphModel>
  </diagram>
</mxfile>
